<svg xmlns="http://www.w3.org/2000/svg" xmlns:xlink="http://www.w3.org/1999/xlink" width="500" height="500" preserveAspectRatio="xMidYMid meet" version="1.0" viewBox="0 0 375 375" zoomAndPan="magnify"><defs><clipPath id="18d0c9b9ae"><path d="M 174 160 L 202 160 L 202 197.0625 L 174 197.0625 Z M 174 160" clip-rule="nonzero"/></clipPath><clipPath id="2c119b196c"><path d="M 174 124.3125 L 202 124.3125 L 202 161 L 174 161 Z M 174 124.3125" clip-rule="nonzero"/></clipPath><clipPath id="d5df1a0e7d"><path d="M 151.25 147 L 188 147 L 188 175 L 151.25 175 Z M 151.25 147" clip-rule="nonzero"/></clipPath></defs><rect width="450" height="450" x="-37.5" y="-37.5" fill="#fff" fill-opacity="1"/><rect width="450" height="450" x="-37.5" y="-37.5" fill="#fff" fill-opacity="1"/><rect width="450" height="450" x="-37.5" y="-37.5" fill="#fff" fill-opacity="1"/><g clip-path="url(#18d0c9b9ae)"><path fill="#a6a6a6" fill-opacity="1" fill-rule="nonzero" d="M 195.550781 197.023438 L 179.683594 197.023438 C 176.621094 197.023438 174.113281 194.519531 174.113281 191.457031 L 174.113281 183.753906 L 177.824219 183.753906 L 177.824219 191.457031 C 177.824219 192.476562 178.660156 193.3125 179.683594 193.3125 L 195.550781 193.3125 C 196.570312 193.3125 197.40625 192.476562 197.40625 191.457031 L 197.40625 160.6875 L 201.117188 160.6875 L 201.117188 191.457031 C 201.117188 194.519531 198.628906 197.023438 195.550781 197.023438 Z M 195.550781 197.023438"/></g><g clip-path="url(#2c119b196c)"><path fill="#03989e" fill-opacity="1" fill-rule="nonzero" d="M 177.824219 160.6875 L 174.113281 160.6875 L 174.113281 129.917969 C 174.113281 126.855469 176.621094 124.347656 179.683594 124.347656 L 195.550781 124.347656 C 198.613281 124.347656 201.117188 126.855469 201.117188 129.917969 L 201.117188 137.617188 L 197.40625 137.617188 L 197.40625 129.917969 C 197.40625 128.894531 196.570312 128.0625 195.550781 128.0625 L 179.683594 128.0625 C 178.660156 128.0625 177.824219 128.894531 177.824219 129.917969 Z M 177.824219 160.6875"/></g><g clip-path="url(#d5df1a0e7d)"><path fill="#03989e" fill-opacity="1" fill-rule="nonzero" d="M 187.625 174.199219 L 156.855469 174.199219 C 153.792969 174.199219 151.289062 171.691406 151.289062 168.628906 L 151.289062 152.761719 C 151.289062 149.699219 153.792969 147.195312 156.855469 147.195312 L 164.554688 147.195312 L 164.554688 150.90625 L 156.855469 150.90625 C 155.835938 150.90625 155 151.742188 155 152.761719 L 155 168.628906 C 155 169.652344 155.835938 170.484375 156.855469 170.484375 L 187.625 170.484375 Z M 187.625 174.199219"/></g><path fill="#a6a6a6" fill-opacity="1" fill-rule="nonzero" d="M 218.394531 174.199219 L 210.695312 174.199219 L 210.695312 170.484375 L 218.394531 170.484375 C 219.414062 170.484375 220.25 169.652344 220.25 168.628906 L 220.25 152.761719 C 220.25 151.742188 219.414062 150.90625 218.394531 150.90625 L 187.625 150.90625 L 187.625 147.195312 L 218.394531 147.195312 C 221.457031 147.195312 223.960938 149.699219 223.960938 152.761719 L 223.960938 168.628906 C 223.960938 171.691406 221.457031 174.199219 218.394531 174.199219 Z M 218.394531 174.199219"/><g fill="#03989e" fill-opacity="1"><g><g><path d="M 23.53125 0 L 20.453125 0 L 20.421875 -14.796875 L 14.171875 -2.0625 L 11.984375 -2.0625 L 5.734375 -14.796875 L 5.734375 0 L 2.609375 0 L 2.609375 -19.796875 L 6.5625 -19.796875 L 13.09375 -6.640625 L 19.59375 -19.796875 L 23.53125 -19.796875 Z M 23.53125 0" transform="translate(89.448906, 229.412738)"/></g></g></g><g fill="#03989e" fill-opacity="1"><g><g><path d="M 16.75 -16.796875 L 5.9375 -16.796875 L 5.9375 -11.453125 L 15.609375 -11.453125 L 15.609375 -8.453125 L 5.9375 -8.453125 L 5.9375 -3 L 17.078125 -3 L 17.078125 0 L 2.609375 0 L 2.609375 -19.796875 L 16.75 -19.796875 Z M 16.75 -16.796875" transform="translate(119.836201, 229.412738)"/></g></g></g><g fill="#03989e" fill-opacity="1"><g><g><path d="M 2.609375 -19.796875 L 10.71875 -19.796875 C 13.675781 -19.796875 16.117188 -18.863281 18.046875 -17 C 19.984375 -15.132812 20.953125 -12.765625 20.953125 -9.890625 C 20.953125 -7.023438 19.976562 -4.660156 18.03125 -2.796875 C 16.09375 -0.929688 13.628906 0 10.640625 0 L 2.609375 0 Z M 5.9375 -16.796875 L 5.9375 -3 L 10.796875 -3 C 12.742188 -3 14.363281 -3.644531 15.65625 -4.9375 C 16.945312 -6.226562 17.59375 -7.875 17.59375 -9.875 C 17.59375 -11.875 16.925781 -13.523438 15.59375 -14.828125 C 14.269531 -16.140625 12.625 -16.796875 10.65625 -16.796875 Z M 5.9375 -16.796875" transform="translate(142.62003, 229.412738)"/></g></g></g><g fill="#03989e" fill-opacity="1"><g><g><path d="M 11.765625 -10.296875 L 18.984375 0 L 14.984375 0 L 9.640625 -7.46875 L 4.328125 0 L 0.421875 0 L 7.640625 -10.15625 L 0.9375 -19.796875 L 4.8125 -19.796875 L 9.640625 -12.921875 L 14.515625 -19.796875 L 18.40625 -19.796875 Z M 11.765625 -10.296875" transform="translate(168.767472, 229.412738)"/></g></g></g><g fill="#a6a6a6" fill-opacity="1"><g><g><path d="M 11.375 -19.875 C 12.769531 -19.875 14.128906 -19.601562 15.453125 -19.0625 C 16.785156 -18.53125 17.929688 -17.785156 18.890625 -16.828125 L 16.9375 -14.390625 C 16.21875 -15.160156 15.367188 -15.769531 14.390625 -16.21875 C 13.410156 -16.675781 12.421875 -16.90625 11.421875 -16.90625 C 9.441406 -16.90625 7.769531 -16.234375 6.40625 -14.890625 C 5.039062 -13.546875 4.359375 -11.898438 4.359375 -9.953125 C 4.359375 -7.992188 5.039062 -6.335938 6.40625 -4.984375 C 7.769531 -3.640625 9.441406 -2.96875 11.421875 -2.96875 C 13.484375 -2.96875 15.320312 -3.75 16.9375 -5.3125 L 18.921875 -3.109375 C 17.898438 -2.109375 16.710938 -1.316406 15.359375 -0.734375 C 14.003906 -0.148438 12.632812 0.140625 11.25 0.140625 C 8.351562 0.140625 5.914062 -0.820312 3.9375 -2.75 C 1.957031 -4.6875 0.96875 -7.078125 0.96875 -9.921875 C 0.96875 -12.734375 1.96875 -15.09375 3.96875 -17 C 5.976562 -18.914062 8.445312 -19.875 11.375 -19.875 Z M 11.375 -19.875" transform="translate(192.562184, 229.412738)"/></g></g></g><g fill="#a6a6a6" fill-opacity="1"><g><g><path d="M 19.421875 -19.796875 L 19.421875 -8.203125 C 19.421875 -5.617188 18.65625 -3.582031 17.125 -2.09375 C 15.601562 -0.601562 13.503906 0.140625 10.828125 0.140625 C 8.148438 0.140625 6.039062 -0.601562 4.5 -2.09375 C 2.96875 -3.582031 2.203125 -5.617188 2.203125 -8.203125 L 2.203125 -19.796875 L 5.546875 -19.796875 L 5.546875 -8.203125 C 5.546875 -6.546875 6.019531 -5.238281 6.96875 -4.28125 C 7.925781 -3.332031 9.222656 -2.859375 10.859375 -2.859375 C 12.484375 -2.859375 13.757812 -3.328125 14.6875 -4.265625 C 15.625 -5.210938 16.09375 -6.523438 16.09375 -8.203125 L 16.09375 -19.796875 Z M 19.421875 -19.796875" transform="translate(216.504912, 229.412738)"/></g></g></g><g fill="#a6a6a6" fill-opacity="1"><g><g><path d="M 15.15625 0 L 11.53125 -6 C 11.34375 -5.976562 11.046875 -5.96875 10.640625 -5.96875 L 5.9375 -5.96875 L 5.9375 0 L 2.609375 0 L 2.609375 -19.796875 L 10.640625 -19.796875 C 13.160156 -19.796875 15.117188 -19.207031 16.515625 -18.03125 C 17.910156 -16.851562 18.609375 -15.1875 18.609375 -13.03125 C 18.609375 -11.445312 18.253906 -10.109375 17.546875 -9.015625 C 16.835938 -7.921875 15.828125 -7.125 14.515625 -6.625 L 18.953125 0 Z M 5.9375 -8.96875 L 10.640625 -8.96875 C 13.835938 -8.96875 15.4375 -10.296875 15.4375 -12.953125 C 15.4375 -15.515625 13.835938 -16.796875 10.640625 -16.796875 L 5.9375 -16.796875 Z M 5.9375 -8.96875" transform="translate(242.341429, 229.412738)"/></g></g></g><g fill="#a6a6a6" fill-opacity="1"><g><g><path d="M 16.75 -16.796875 L 5.9375 -16.796875 L 5.9375 -11.453125 L 15.609375 -11.453125 L 15.609375 -8.453125 L 5.9375 -8.453125 L 5.9375 -3 L 17.078125 -3 L 17.078125 0 L 2.609375 0 L 2.609375 -19.796875 L 16.75 -19.796875 Z M 16.75 -16.796875" transform="translate(267.019061, 229.412738)"/></g></g></g><g fill="#a6a6a6" fill-opacity="1"><g><g><path d="M 0.921875 -7 L 3.796875 -7 C 4.835938 -7 5.695312 -6.664062 6.375 -6 C 7.0625 -5.34375 7.40625 -4.507812 7.40625 -3.5 C 7.40625 -2.488281 7.0625 -1.648438 6.375 -0.984375 C 5.6875 -0.328125 4.816406 0 3.765625 0 L 0.921875 0 Z M 2.09375 -5.9375 L 2.09375 -1.0625 L 3.8125 -1.0625 C 4.5 -1.0625 5.070312 -1.289062 5.53125 -1.75 C 5.988281 -2.207031 6.21875 -2.785156 6.21875 -3.484375 C 6.21875 -4.191406 5.984375 -4.773438 5.515625 -5.234375 C 5.046875 -5.703125 4.460938 -5.9375 3.765625 -5.9375 Z M 2.09375 -5.9375" transform="translate(99.092028, 248.687928)"/></g></g></g><g fill="#a6a6a6" fill-opacity="1"><g><g><path d="M 2.09375 0 L 0.921875 0 L 0.921875 -7 L 2.09375 -7 Z M 2.09375 0" transform="translate(109.338961, 248.687928)"/></g></g></g><g fill="#a6a6a6" fill-opacity="1"><g><g><path d="M 5.703125 -3.4375 L 6.734375 -3.4375 L 6.734375 -0.859375 C 6.378906 -0.585938 5.957031 -0.367188 5.46875 -0.203125 C 4.976562 -0.0351562 4.492188 0.046875 4.015625 0.046875 C 2.984375 0.046875 2.113281 -0.289062 1.40625 -0.96875 C 0.695312 -1.65625 0.34375 -2.5 0.34375 -3.5 C 0.34375 -4.5 0.703125 -5.335938 1.421875 -6.015625 C 2.140625 -6.691406 3.03125 -7.03125 4.09375 -7.03125 C 4.582031 -7.03125 5.066406 -6.941406 5.546875 -6.765625 C 6.023438 -6.585938 6.4375 -6.347656 6.78125 -6.046875 L 6.109375 -5.1875 C 5.535156 -5.71875 4.863281 -5.984375 4.09375 -5.984375 C 3.375 -5.984375 2.769531 -5.742188 2.28125 -5.265625 C 1.789062 -4.785156 1.546875 -4.195312 1.546875 -3.5 C 1.546875 -2.800781 1.789062 -2.210938 2.28125 -1.734375 C 2.78125 -1.253906 3.382812 -1.015625 4.09375 -1.015625 C 4.632812 -1.015625 5.171875 -1.171875 5.703125 -1.484375 Z M 5.703125 -3.4375" transform="translate(114.857768, 248.687928)"/></g></g></g><g fill="#a6a6a6" fill-opacity="1"><g><g><path d="M 2.09375 0 L 0.921875 0 L 0.921875 -7 L 2.09375 -7 Z M 2.09375 0" transform="translate(124.844806, 248.687928)"/></g></g></g><g fill="#a6a6a6" fill-opacity="1"><g><g><path d="M 5.703125 -5.9375 L 3.484375 -5.9375 L 3.484375 0 L 2.296875 0 L 2.296875 -5.9375 L 0.09375 -5.9375 L 0.09375 -7 L 5.703125 -7 Z M 5.703125 -5.9375" transform="translate(130.363613, 248.687928)"/></g></g></g><g fill="#a6a6a6" fill-opacity="1"><g><g><path d="M 5.4375 -1.578125 L 1.90625 -1.578125 L 1.234375 0 L 0.015625 0 L 3.09375 -7 L 4.3125 -7 L 7.375 0 L 6.109375 0 Z M 4.984375 -2.625 L 3.671875 -5.734375 L 2.34375 -2.625 Z M 4.984375 -2.625" transform="translate(138.651318, 248.687928)"/></g></g></g><g fill="#a6a6a6" fill-opacity="1"><g><g><path d="M 2.09375 -1.0625 L 5.125 -1.0625 L 5.125 0 L 0.921875 0 L 0.921875 -7 L 2.09375 -7 Z M 2.09375 -1.0625" transform="translate(148.528401, 248.687928)"/></g></g></g><g fill="#a6a6a6" fill-opacity="1"><g><g><path d="M 6.984375 0 L 5.8125 0 L 5.8125 -2.90625 L 2.09375 -2.90625 L 2.09375 0 L 0.921875 0 L 0.921875 -7 L 2.09375 -7 L 2.09375 -3.953125 L 5.8125 -3.953125 L 5.8125 -7 L 6.984375 -7 Z M 6.984375 0" transform="translate(161.445261, 248.687928)"/></g></g></g><g fill="#a6a6a6" fill-opacity="1"><g><g><path d="M 5.921875 -5.9375 L 2.09375 -5.9375 L 2.09375 -4.046875 L 5.515625 -4.046875 L 5.515625 -2.984375 L 2.09375 -2.984375 L 2.09375 -1.0625 L 6.046875 -1.0625 L 6.046875 0 L 0.921875 0 L 0.921875 -7 L 5.921875 -7 Z M 5.921875 -5.9375" transform="translate(171.852139, 248.687928)"/></g></g></g><g fill="#a6a6a6" fill-opacity="1"><g><g><path d="M 5.4375 -1.578125 L 1.90625 -1.578125 L 1.234375 0 L 0.015625 0 L 3.09375 -7 L 4.3125 -7 L 7.375 0 L 6.109375 0 Z M 4.984375 -2.625 L 3.671875 -5.734375 L 2.34375 -2.625 Z M 4.984375 -2.625" transform="translate(180.909554, 248.687928)"/></g></g></g><g fill="#a6a6a6" fill-opacity="1"><g><g><path d="M 2.09375 -1.0625 L 5.125 -1.0625 L 5.125 0 L 0.921875 0 L 0.921875 -7 L 2.09375 -7 Z M 2.09375 -1.0625" transform="translate(190.78664, 248.687928)"/></g></g></g><g fill="#a6a6a6" fill-opacity="1"><g><g><path d="M 5.703125 -5.9375 L 3.484375 -5.9375 L 3.484375 0 L 2.296875 0 L 2.296875 -5.9375 L 0.09375 -5.9375 L 0.09375 -7 L 5.703125 -7 Z M 5.703125 -5.9375" transform="translate(198.624526, 248.687928)"/></g></g></g><g fill="#a6a6a6" fill-opacity="1"><g><g><path d="M 6.984375 0 L 5.8125 0 L 5.8125 -2.90625 L 2.09375 -2.90625 L 2.09375 0 L 0.921875 0 L 0.921875 -7 L 2.09375 -7 L 2.09375 -3.953125 L 5.8125 -3.953125 L 5.8125 -7 L 6.984375 -7 Z M 6.984375 0" transform="translate(206.912234, 248.687928)"/></g></g></g><g fill="#a6a6a6" fill-opacity="1"><g><g><path d="M 4.015625 -7.03125 C 4.515625 -7.03125 5 -6.929688 5.46875 -6.734375 C 5.9375 -6.546875 6.34375 -6.285156 6.6875 -5.953125 L 5.984375 -5.09375 C 5.734375 -5.363281 5.429688 -5.578125 5.078125 -5.734375 C 4.734375 -5.898438 4.390625 -5.984375 4.046875 -5.984375 C 3.335938 -5.984375 2.742188 -5.742188 2.265625 -5.265625 C 1.785156 -4.785156 1.546875 -4.203125 1.546875 -3.515625 C 1.546875 -2.828125 1.785156 -2.242188 2.265625 -1.765625 C 2.742188 -1.285156 3.335938 -1.046875 4.046875 -1.046875 C 4.765625 -1.046875 5.410156 -1.320312 5.984375 -1.875 L 6.6875 -1.09375 C 6.332031 -0.738281 5.910156 -0.457031 5.421875 -0.25 C 4.941406 -0.0507812 4.460938 0.046875 3.984375 0.046875 C 2.953125 0.046875 2.085938 -0.289062 1.390625 -0.96875 C 0.691406 -1.65625 0.34375 -2.503906 0.34375 -3.515625 C 0.34375 -4.503906 0.695312 -5.335938 1.40625 -6.015625 C 2.113281 -6.691406 2.984375 -7.03125 4.015625 -7.03125 Z M 4.015625 -7.03125" transform="translate(222.398092, 248.687928)"/></g></g></g><g fill="#a6a6a6" fill-opacity="1"><g><g><path d="M 5.921875 -5.9375 L 2.09375 -5.9375 L 2.09375 -4.046875 L 5.515625 -4.046875 L 5.515625 -2.984375 L 2.09375 -2.984375 L 2.09375 -1.0625 L 6.046875 -1.0625 L 6.046875 0 L 0.921875 0 L 0.921875 -7 L 5.921875 -7 Z M 5.921875 -5.9375" transform="translate(231.865342, 248.687928)"/></g></g></g><g fill="#a6a6a6" fill-opacity="1"><g><g><path d="M 6.984375 0 L 5.828125 0 L 2.09375 -5.015625 L 2.09375 0 L 0.921875 0 L 0.921875 -7 L 2.078125 -7 L 5.828125 -1.96875 L 5.828125 -7 L 6.984375 -7 Z M 6.984375 0" transform="translate(240.922756, 248.687928)"/></g></g></g><g fill="#a6a6a6" fill-opacity="1"><g><g><path d="M 5.703125 -5.9375 L 3.484375 -5.9375 L 3.484375 0 L 2.296875 0 L 2.296875 -5.9375 L 0.09375 -5.9375 L 0.09375 -7 L 5.703125 -7 Z M 5.703125 -5.9375" transform="translate(251.339626, 248.687928)"/></g></g></g><g fill="#a6a6a6" fill-opacity="1"><g><g><path d="M 5.921875 -5.9375 L 2.09375 -5.9375 L 2.09375 -4.046875 L 5.515625 -4.046875 L 5.515625 -2.984375 L 2.09375 -2.984375 L 2.09375 -1.0625 L 6.046875 -1.0625 L 6.046875 0 L 0.921875 0 L 0.921875 -7 L 5.921875 -7 Z M 5.921875 -5.9375" transform="translate(259.627334, 248.687928)"/></g></g></g><g fill="#a6a6a6" fill-opacity="1"><g><g><path d="M 5.359375 0 L 4.078125 -2.125 C 4.015625 -2.113281 3.910156 -2.109375 3.765625 -2.109375 L 2.09375 -2.109375 L 2.09375 0 L 0.921875 0 L 0.921875 -7 L 3.765625 -7 C 4.648438 -7 5.335938 -6.789062 5.828125 -6.375 C 6.328125 -5.957031 6.578125 -5.367188 6.578125 -4.609375 C 6.578125 -4.046875 6.453125 -3.570312 6.203125 -3.1875 C 5.953125 -2.800781 5.59375 -2.519531 5.125 -2.34375 L 6.703125 0 Z M 2.09375 -3.171875 L 3.765625 -3.171875 C 4.890625 -3.171875 5.453125 -3.640625 5.453125 -4.578125 C 5.453125 -5.484375 4.890625 -5.9375 3.765625 -5.9375 L 2.09375 -5.9375 Z M 2.09375 -3.171875" transform="translate(268.684748, 248.687928)"/></g></g></g></svg>