<svg xmlns="http://www.w3.org/2000/svg" xmlns:xlink="http://www.w3.org/1999/xlink" width="793" height="1122" preserveAspectRatio="xMidYMid meet" version="1.0" viewBox="0 0 595.5 842.25" zoomAndPan="magnify"><defs><clipPath id="4439578206"><path d="M 276 377 L 319 377 L 319 435.367188 L 276 435.367188 Z M 276 377" clip-rule="nonzero"/></clipPath><clipPath id="4437541909"><path d="M 276 320.625 L 319 320.625 L 319 378 L 276 378 Z M 276 320.625" clip-rule="nonzero"/></clipPath><clipPath id="1df0ffbc73"><path d="M 240.097656 356 L 298 356 L 298 400 L 240.097656 400 Z M 240.097656 356" clip-rule="nonzero"/></clipPath><clipPath id="6b9f01b83a"><path d="M 297 356 L 354.839844 356 L 354.839844 400 L 297 400 Z M 297 356" clip-rule="nonzero"/></clipPath></defs><g clip-path="url(#4439578206)"><path fill="#ffbd59" fill-opacity="1" fill-rule="nonzero" d="M 309.96875 435.308594 L 284.941406 435.308594 C 280.113281 435.308594 276.160156 431.359375 276.160156 426.527344 L 276.160156 414.378906 L 282.015625 414.378906 L 282.015625 426.527344 C 282.015625 428.136719 283.332031 429.457031 284.941406 429.457031 L 309.96875 429.457031 C 311.578125 429.457031 312.894531 428.136719 312.894531 426.527344 L 312.894531 377.996094 L 318.75 377.996094 L 318.75 426.527344 C 318.75 431.359375 314.828125 435.308594 309.96875 435.308594 Z M 309.96875 435.308594"/></g><g clip-path="url(#4437541909)"><path fill="#03989e" fill-opacity="1" fill-rule="nonzero" d="M 282.015625 377.996094 L 276.160156 377.996094 L 276.160156 329.464844 C 276.160156 324.632812 280.113281 320.683594 284.941406 320.683594 L 309.96875 320.683594 C 314.796875 320.683594 318.75 324.632812 318.75 329.464844 L 318.75 341.613281 L 312.894531 341.613281 L 312.894531 329.464844 C 312.894531 327.855469 311.578125 326.535156 309.96875 326.535156 L 284.941406 326.535156 C 283.332031 326.535156 282.015625 327.855469 282.015625 329.464844 Z M 282.015625 377.996094"/></g><g clip-path="url(#1df0ffbc73)"><path fill="#03989e" fill-opacity="1" fill-rule="nonzero" d="M 297.46875 399.304688 L 248.9375 399.304688 C 244.109375 399.304688 240.15625 395.355469 240.15625 390.523438 L 240.15625 365.496094 C 240.15625 360.667969 244.109375 356.714844 248.9375 356.714844 L 261.085938 356.714844 L 261.085938 362.570312 L 248.9375 362.570312 C 247.328125 362.570312 246.011719 363.886719 246.011719 365.496094 L 246.011719 390.523438 C 246.011719 392.132812 247.328125 393.453125 248.9375 393.453125 L 297.46875 393.453125 Z M 297.46875 399.304688"/></g><g clip-path="url(#6b9f01b83a)"><path fill="#ffbd59" fill-opacity="1" fill-rule="nonzero" d="M 346 399.304688 L 333.855469 399.304688 L 333.855469 393.453125 L 346 393.453125 C 347.613281 393.453125 348.929688 392.132812 348.929688 390.523438 L 348.929688 365.496094 C 348.929688 363.886719 347.613281 362.570312 346 362.570312 L 297.46875 362.570312 L 297.46875 356.714844 L 346 356.714844 C 350.832031 356.714844 354.78125 360.667969 354.78125 365.496094 L 354.78125 390.523438 C 354.78125 395.355469 350.832031 399.304688 346 399.304688 Z M 346 399.304688"/></g><g fill="#03989e" fill-opacity="1"><g><g><path d="M 37.328125 0 L 32.4375 0 L 32.40625 -23.46875 L 22.484375 -3.28125 L 19.03125 -3.28125 L 9.109375 -23.46875 L 9.109375 0 L 4.125 0 L 4.125 -31.40625 L 10.40625 -31.40625 L 20.78125 -10.546875 L 31.09375 -31.40625 L 37.328125 -31.40625 Z M 37.328125 0" transform="translate(141.980134, 487.389876)"/></g></g></g><g fill="#03989e" fill-opacity="1"><g><g><path d="M 26.5625 -26.65625 L 9.421875 -26.65625 L 9.421875 -18.171875 L 24.765625 -18.171875 L 24.765625 -13.421875 L 9.421875 -13.421875 L 9.421875 -4.75 L 27.109375 -4.75 L 27.109375 0 L 4.125 0 L 4.125 -31.40625 L 26.5625 -31.40625 Z M 26.5625 -26.65625" transform="translate(190.216455, 487.389876)"/></g></g></g><g fill="#03989e" fill-opacity="1"><g><g><path d="M 4.125 -31.40625 L 17 -31.40625 C 21.695312 -31.40625 25.578125 -29.925781 28.640625 -26.96875 C 31.710938 -24.007812 33.25 -20.253906 33.25 -15.703125 C 33.25 -11.160156 31.707031 -7.40625 28.625 -4.4375 C 25.550781 -1.476562 21.632812 0 16.875 0 L 4.125 0 Z M 9.421875 -26.65625 L 9.421875 -4.75 L 17.140625 -4.75 C 20.222656 -4.75 22.785156 -5.773438 24.828125 -7.828125 C 26.878906 -9.878906 27.90625 -12.488281 27.90625 -15.65625 C 27.90625 -18.832031 26.847656 -21.457031 24.734375 -23.53125 C 22.628906 -25.613281 20.023438 -26.65625 16.921875 -26.65625 Z M 9.421875 -26.65625" transform="translate(226.383078, 487.389876)"/></g></g></g><g fill="#03989e" fill-opacity="1"><g><g><path d="M 18.671875 -16.328125 L 30.109375 0 L 23.78125 0 L 15.296875 -11.84375 L 6.859375 0 L 0.671875 0 L 12.109375 -16.109375 L 1.484375 -31.40625 L 7.625 -31.40625 L 15.296875 -20.515625 L 23.015625 -31.40625 L 29.21875 -31.40625 Z M 18.671875 -16.328125" transform="translate(267.889087, 487.389876)"/></g></g></g><g fill="#ffbd59" fill-opacity="1"><g><g><path d="M 18.046875 -31.546875 C 20.253906 -31.546875 22.410156 -31.117188 24.515625 -30.265625 C 26.628906 -29.410156 28.445312 -28.222656 29.96875 -26.703125 L 26.875 -22.84375 C 25.738281 -24.070312 24.394531 -25.039062 22.84375 -25.75 C 21.289062 -26.46875 19.71875 -26.828125 18.125 -26.828125 C 14.988281 -26.828125 12.332031 -25.757812 10.15625 -23.625 C 7.988281 -21.488281 6.90625 -18.878906 6.90625 -15.796875 C 6.90625 -12.679688 7.988281 -10.054688 10.15625 -7.921875 C 12.332031 -5.785156 14.988281 -4.71875 18.125 -4.71875 C 21.382812 -4.71875 24.300781 -5.957031 26.875 -8.4375 L 30.015625 -4.9375 C 28.398438 -3.351562 26.515625 -2.097656 24.359375 -1.171875 C 22.210938 -0.242188 20.046875 0.21875 17.859375 0.21875 C 13.253906 0.21875 9.378906 -1.3125 6.234375 -4.375 C 3.097656 -7.4375 1.53125 -11.226562 1.53125 -15.75 C 1.53125 -20.207031 3.117188 -23.953125 6.296875 -26.984375 C 9.484375 -30.023438 13.398438 -31.546875 18.046875 -31.546875 Z M 18.046875 -31.546875" transform="translate(305.659306, 487.389876)"/></g></g></g><g fill="#ffbd59" fill-opacity="1"><g><g><path d="M 30.828125 -31.40625 L 30.828125 -13.015625 C 30.828125 -8.910156 29.613281 -5.675781 27.1875 -3.3125 C 24.769531 -0.957031 21.4375 0.21875 17.1875 0.21875 C 12.9375 0.21875 9.59375 -0.957031 7.15625 -3.3125 C 4.71875 -5.675781 3.5 -8.910156 3.5 -13.015625 L 3.5 -31.40625 L 8.796875 -31.40625 L 8.796875 -13.015625 C 8.796875 -10.378906 9.550781 -8.304688 11.0625 -6.796875 C 12.570312 -5.285156 14.628906 -4.53125 17.234375 -4.53125 C 19.804688 -4.53125 21.832031 -5.273438 23.3125 -6.765625 C 24.789062 -8.265625 25.53125 -10.347656 25.53125 -13.015625 L 25.53125 -31.40625 Z M 30.828125 -31.40625" transform="translate(343.665553, 487.389876)"/></g></g></g><g fill="#ffbd59" fill-opacity="1"><g><g><path d="M 24.046875 0 L 18.3125 -9.515625 C 18.007812 -9.484375 17.53125 -9.46875 16.875 -9.46875 L 9.421875 -9.46875 L 9.421875 0 L 4.125 0 L 4.125 -31.40625 L 16.875 -31.40625 C 20.882812 -31.40625 23.992188 -30.46875 26.203125 -28.59375 C 28.421875 -26.726562 29.53125 -24.09375 29.53125 -20.6875 C 29.53125 -18.175781 28.96875 -16.050781 27.84375 -14.3125 C 26.71875 -12.582031 25.109375 -11.3125 23.015625 -10.5 L 30.0625 0 Z M 9.421875 -14.21875 L 16.875 -14.21875 C 21.957031 -14.21875 24.5 -16.328125 24.5 -20.546875 C 24.5 -24.617188 21.957031 -26.65625 16.875 -26.65625 L 9.421875 -26.65625 Z M 9.421875 -14.21875" transform="translate(384.677998, 487.389876)"/></g></g></g><g fill="#ffbd59" fill-opacity="1"><g><g><path d="M 26.5625 -26.65625 L 9.421875 -26.65625 L 9.421875 -18.171875 L 24.765625 -18.171875 L 24.765625 -13.421875 L 9.421875 -13.421875 L 9.421875 -4.75 L 27.109375 -4.75 L 27.109375 0 L 4.125 0 L 4.125 -31.40625 L 26.5625 -31.40625 Z M 26.5625 -26.65625" transform="translate(423.850825, 487.389876)"/></g></g></g><g fill="#a6a6a6" fill-opacity="1"><g><g><path d="M 1.453125 -11.109375 L 6.015625 -11.109375 C 7.679688 -11.109375 9.054688 -10.582031 10.140625 -9.53125 C 11.222656 -8.488281 11.765625 -7.160156 11.765625 -5.546875 C 11.765625 -3.941406 11.21875 -2.613281 10.125 -1.5625 C 9.039062 -0.519531 7.65625 0 5.96875 0 L 1.453125 0 Z M 3.328125 -9.4375 L 3.328125 -1.6875 L 6.0625 -1.6875 C 7.15625 -1.6875 8.0625 -2.046875 8.78125 -2.765625 C 9.507812 -3.492188 9.875 -4.414062 9.875 -5.53125 C 9.875 -6.65625 9.5 -7.585938 8.75 -8.328125 C 8.007812 -9.066406 7.085938 -9.4375 5.984375 -9.4375 Z M 3.328125 -9.4375" transform="translate(157.30597, 518.048417)"/></g></g></g><g fill="#a6a6a6" fill-opacity="1"><g><g><path d="M 3.328125 0 L 1.453125 0 L 1.453125 -11.109375 L 3.328125 -11.109375 Z M 3.328125 0" transform="translate(173.571142, 518.048417)"/></g></g></g><g fill="#a6a6a6" fill-opacity="1"><g><g><path d="M 9.0625 -5.46875 L 10.703125 -5.46875 L 10.703125 -1.359375 C 10.128906 -0.929688 9.453125 -0.582031 8.671875 -0.3125 C 7.898438 -0.0507812 7.132812 0.078125 6.375 0.078125 C 4.738281 0.078125 3.359375 -0.460938 2.234375 -1.546875 C 1.109375 -2.628906 0.546875 -3.960938 0.546875 -5.546875 C 0.546875 -7.140625 1.113281 -8.472656 2.25 -9.546875 C 3.394531 -10.617188 4.8125 -11.15625 6.5 -11.15625 C 7.28125 -11.15625 8.046875 -11.015625 8.796875 -10.734375 C 9.554688 -10.453125 10.210938 -10.078125 10.765625 -9.609375 L 9.703125 -8.21875 C 8.785156 -9.070312 7.71875 -9.5 6.5 -9.5 C 5.363281 -9.5 4.398438 -9.113281 3.609375 -8.34375 C 2.828125 -7.582031 2.4375 -6.65625 2.4375 -5.5625 C 2.4375 -4.445312 2.832031 -3.507812 3.625 -2.75 C 4.414062 -1.988281 5.378906 -1.609375 6.515625 -1.609375 C 7.367188 -1.609375 8.21875 -1.859375 9.0625 -2.359375 Z M 9.0625 -5.46875" transform="translate(182.33126, 518.048417)"/></g></g></g><g fill="#a6a6a6" fill-opacity="1"><g><g><path d="M 3.328125 0 L 1.453125 0 L 1.453125 -11.109375 L 3.328125 -11.109375 Z M 3.328125 0" transform="translate(198.183895, 518.048417)"/></g></g></g><g fill="#a6a6a6" fill-opacity="1"><g><g><path d="M 9.046875 -9.4375 L 5.53125 -9.4375 L 5.53125 0 L 3.65625 0 L 3.65625 -9.4375 L 0.140625 -9.4375 L 0.140625 -11.109375 L 9.046875 -11.109375 Z M 9.046875 -9.4375" transform="translate(206.944013, 518.048417)"/></g></g></g><g fill="#a6a6a6" fill-opacity="1"><g><g><path d="M 8.640625 -2.515625 L 3.03125 -2.515625 L 1.96875 0 L 0.015625 0 L 4.921875 -11.109375 L 6.84375 -11.109375 L 11.703125 0 L 9.703125 0 Z M 7.921875 -4.171875 L 5.828125 -9.109375 L 3.734375 -4.171875 Z M 7.921875 -4.171875" transform="translate(220.099261, 518.048417)"/></g></g></g><g fill="#a6a6a6" fill-opacity="1"><g><g><path d="M 3.328125 -1.703125 L 8.140625 -1.703125 L 8.140625 0 L 1.453125 0 L 1.453125 -11.109375 L 3.328125 -11.109375 Z M 3.328125 -1.703125" transform="translate(235.777362, 518.048417)"/></g></g></g><g fill="#a6a6a6" fill-opacity="1"><g><g><path d="M 11.09375 0 L 9.21875 0 L 9.21875 -4.609375 L 3.328125 -4.609375 L 3.328125 0 L 1.453125 0 L 1.453125 -11.109375 L 3.328125 -11.109375 L 3.328125 -6.28125 L 9.21875 -6.28125 L 9.21875 -11.109375 L 11.09375 -11.109375 Z M 11.09375 0" transform="translate(256.280564, 518.048417)"/></g></g></g><g fill="#a6a6a6" fill-opacity="1"><g><g><path d="M 9.390625 -9.4375 L 3.328125 -9.4375 L 3.328125 -6.421875 L 8.765625 -6.421875 L 8.765625 -4.75 L 3.328125 -4.75 L 3.328125 -1.6875 L 9.59375 -1.6875 L 9.59375 0 L 1.453125 0 L 1.453125 -11.109375 L 9.390625 -11.109375 Z M 9.390625 -9.4375" transform="translate(272.799621, 518.048417)"/></g></g></g><g fill="#a6a6a6" fill-opacity="1"><g><g><path d="M 8.640625 -2.515625 L 3.03125 -2.515625 L 1.96875 0 L 0.015625 0 L 4.921875 -11.109375 L 6.84375 -11.109375 L 11.703125 0 L 9.703125 0 Z M 7.921875 -4.171875 L 5.828125 -9.109375 L 3.734375 -4.171875 Z M 7.921875 -4.171875" transform="translate(287.176645, 518.048417)"/></g></g></g><g fill="#a6a6a6" fill-opacity="1"><g><g><path d="M 3.328125 -1.703125 L 8.140625 -1.703125 L 8.140625 0 L 1.453125 0 L 1.453125 -11.109375 L 3.328125 -11.109375 Z M 3.328125 -1.703125" transform="translate(302.85475, 518.048417)"/></g></g></g><g fill="#a6a6a6" fill-opacity="1"><g><g><path d="M 9.046875 -9.4375 L 5.53125 -9.4375 L 5.53125 0 L 3.65625 0 L 3.65625 -9.4375 L 0.140625 -9.4375 L 0.140625 -11.109375 L 9.046875 -11.109375 Z M 9.046875 -9.4375" transform="translate(315.295991, 518.048417)"/></g></g></g><g fill="#a6a6a6" fill-opacity="1"><g><g><path d="M 11.09375 0 L 9.21875 0 L 9.21875 -4.609375 L 3.328125 -4.609375 L 3.328125 0 L 1.453125 0 L 1.453125 -11.109375 L 3.328125 -11.109375 L 3.328125 -6.28125 L 9.21875 -6.28125 L 9.21875 -11.109375 L 11.09375 -11.109375 Z M 11.09375 0" transform="translate(328.451244, 518.048417)"/></g></g></g><g fill="#a6a6a6" fill-opacity="1"><g><g><path d="M 6.375 -11.15625 C 7.164062 -11.15625 7.929688 -11.003906 8.671875 -10.703125 C 9.421875 -10.398438 10.066406 -9.984375 10.609375 -9.453125 L 9.515625 -8.078125 C 9.109375 -8.515625 8.628906 -8.859375 8.078125 -9.109375 C 7.523438 -9.367188 6.96875 -9.5 6.40625 -9.5 C 5.300781 -9.5 4.363281 -9.117188 3.59375 -8.359375 C 2.820312 -7.597656 2.4375 -6.675781 2.4375 -5.59375 C 2.4375 -4.488281 2.820312 -3.554688 3.59375 -2.796875 C 4.363281 -2.046875 5.300781 -1.671875 6.40625 -1.671875 C 7.5625 -1.671875 8.597656 -2.109375 9.515625 -2.984375 L 10.625 -1.75 C 10.050781 -1.1875 9.382812 -0.738281 8.625 -0.40625 C 7.863281 -0.0820312 7.09375 0.078125 6.3125 0.078125 C 4.6875 0.078125 3.316406 -0.460938 2.203125 -1.546875 C 1.097656 -2.628906 0.546875 -3.972656 0.546875 -5.578125 C 0.546875 -7.148438 1.109375 -8.472656 2.234375 -9.546875 C 3.359375 -10.617188 4.738281 -11.15625 6.375 -11.15625 Z M 6.375 -11.15625" transform="translate(353.032271, 518.048417)"/></g></g></g><g fill="#a6a6a6" fill-opacity="1"><g><g><path d="M 9.390625 -9.4375 L 3.328125 -9.4375 L 3.328125 -6.421875 L 8.765625 -6.421875 L 8.765625 -4.75 L 3.328125 -4.75 L 3.328125 -1.6875 L 9.59375 -1.6875 L 9.59375 0 L 1.453125 0 L 1.453125 -11.109375 L 9.390625 -11.109375 Z M 9.390625 -9.4375" transform="translate(368.059835, 518.048417)"/></g></g></g><g fill="#a6a6a6" fill-opacity="1"><g><g><path d="M 11.09375 0 L 9.25 0 L 3.328125 -7.96875 L 3.328125 0 L 1.453125 0 L 1.453125 -11.109375 L 3.296875 -11.109375 L 9.25 -3.125 L 9.25 -11.109375 L 11.09375 -11.109375 Z M 11.09375 0" transform="translate(382.436859, 518.048417)"/></g></g></g><g fill="#a6a6a6" fill-opacity="1"><g><g><path d="M 9.046875 -9.4375 L 5.53125 -9.4375 L 5.53125 0 L 3.65625 0 L 3.65625 -9.4375 L 0.140625 -9.4375 L 0.140625 -11.109375 L 9.046875 -11.109375 Z M 9.046875 -9.4375" transform="translate(398.971774, 518.048417)"/></g></g></g><g fill="#a6a6a6" fill-opacity="1"><g><g><path d="M 9.390625 -9.4375 L 3.328125 -9.4375 L 3.328125 -6.421875 L 8.765625 -6.421875 L 8.765625 -4.75 L 3.328125 -4.75 L 3.328125 -1.6875 L 9.59375 -1.6875 L 9.59375 0 L 1.453125 0 L 1.453125 -11.109375 L 9.390625 -11.109375 Z M 9.390625 -9.4375" transform="translate(412.127027, 518.048417)"/></g></g></g><g fill="#a6a6a6" fill-opacity="1"><g><g><path d="M 8.515625 0 L 6.484375 -3.359375 C 6.367188 -3.347656 6.195312 -3.34375 5.96875 -3.34375 L 3.328125 -3.34375 L 3.328125 0 L 1.453125 0 L 1.453125 -11.109375 L 5.96875 -11.109375 C 7.382812 -11.109375 8.484375 -10.773438 9.265625 -10.109375 C 10.054688 -9.453125 10.453125 -8.519531 10.453125 -7.3125 C 10.453125 -6.425781 10.25 -5.675781 9.84375 -5.0625 C 9.445312 -4.445312 8.878906 -4 8.140625 -3.71875 L 10.640625 0 Z M 3.328125 -5.03125 L 5.96875 -5.03125 C 7.769531 -5.03125 8.671875 -5.773438 8.671875 -7.265625 C 8.671875 -8.710938 7.769531 -9.4375 5.96875 -9.4375 L 3.328125 -9.4375 Z M 3.328125 -5.03125" transform="translate(426.50405, 518.048417)"/></g></g></g></svg>